<svg version="1.1" id="Layer_1" xmlns="http://www.w3.org/2000/svg" xmlns:xlink="http://www.w3.org/1999/xlink" x="0px" y="0px"
	 width="100%" viewBox="0 0 55 66" enable-background="new 0 0 55 66" xml:space="preserve">
<path fill="#FFFFFF" opacity="1.000000" stroke="none" 
	d="
M56.000000,24.999926 
	C56.000000,39.304638 56.000000,53.109329 56.000000,66.957016 
	C37.733356,66.957016 19.466599,66.957016 1.099918,66.957016 
	C1.099918,45.112564 1.099918,23.224518 1.099918,1.168236 
	C19.332075,1.168236 37.665909,1.168236 56.000000,1.168236 
	C56.000000,8.865722 56.000000,16.682816 56.000000,24.999926 
M50.298180,38.509247 
	C50.298180,34.056847 50.298180,29.604445 50.298180,24.461086 
	C45.915409,26.576279 42.034870,28.159773 38.487331,30.296213 
	C36.957432,31.217564 35.732574,33.126488 35.027485,34.855286 
	C31.472294,43.572159 28.134151,52.377556 24.774139,61.012360 
	C30.565414,61.012360 37.513908,60.906143 44.457153,61.051228 
	C48.791237,61.141788 50.398869,59.071972 50.320671,54.984299 
	C50.221996,49.826263 50.297756,44.664890 50.298180,38.509247 
M6.017682,27.156469 
	C7.113980,27.770327 8.303058,29.032351 9.291239,28.890902 
	C14.922719,28.084799 20.529694,27.047918 26.079260,25.797672 
	C26.852440,25.623487 27.693552,23.859465 27.743671,22.795620 
	C27.825703,21.054424 27.284981,19.283667 27.005041,17.525681 
	C25.416006,7.546701 24.780653,7.000361 14.769487,7.000318 
	C13.113405,7.000310 11.451695,7.087359 9.802499,6.980784 
	C6.999375,6.799640 5.939596,8.119205 5.979397,10.818753 
	C6.055071,15.951471 5.999819,21.086121 6.017682,27.156469 
M24.000578,44.393642 
	C24.914215,41.385605 25.827850,38.377571 26.813271,35.133198 
	C19.725887,36.239445 12.956430,37.296066 5.988966,38.383598 
	C5.988966,44.081009 5.810094,49.541210 6.081930,54.978878 
	C6.182766,56.995960 7.442470,60.688099 7.999759,60.655365 
	C10.698812,60.496826 14.303911,60.141773 15.801930,58.357178 
	C19.084133,54.447102 21.287626,49.631535 24.000578,44.393642 
M35.035606,18.516964 
	C35.109184,19.631062 35.182758,20.745159 35.331600,22.998976 
	C40.354691,20.069721 44.962814,17.779634 49.025387,14.756438 
	C50.153961,13.916599 50.041008,10.844550 49.738300,8.915771 
	C49.612827,8.116280 47.517090,7.145550 46.277996,7.087074 
	C41.681709,6.870163 37.069035,7.000655 32.436703,7.000655 
	C33.349087,10.750620 34.189590,14.205162 35.035606,18.516964 
z"/>
<path fill="#0A8447" opacity="1.000000" stroke="none" 
	d="
M50.298222,39.007103 
	C50.297756,44.664890 50.221996,49.826263 50.320671,54.984299 
	C50.398869,59.071972 48.791237,61.141788 44.457153,61.051228 
	C37.513908,60.906143 30.565414,61.012360 24.774139,61.012360 
	C28.134151,52.377556 31.472294,43.572159 35.027485,34.855286 
	C35.732574,33.126488 36.957432,31.217564 38.487331,30.296213 
	C42.034870,28.159773 45.915409,26.576279 50.298180,24.461086 
	C50.298180,29.604445 50.298180,34.056847 50.298222,39.007103 
z"/>
<path fill="#F1B828" opacity="1.000000" stroke="none" 
	d="
M6.008310,26.688219 
	C5.999819,21.086121 6.055071,15.951471 5.979397,10.818753 
	C5.939596,8.119205 6.999375,6.799640 9.802499,6.980784 
	C11.451695,7.087359 13.113405,7.000310 14.769487,7.000318 
	C24.780653,7.000361 25.416006,7.546701 27.005041,17.525681 
	C27.284981,19.283667 27.825703,21.054424 27.743671,22.795620 
	C27.693552,23.859465 26.852440,25.623487 26.079260,25.797672 
	C20.529694,27.047918 14.922719,28.084799 9.291239,28.890902 
	C8.303058,29.032351 7.113980,27.770327 6.008310,26.688219 
z"/>
<path fill="#0A8447" opacity="1.000000" stroke="none" 
	d="
M23.966106,44.789696 
	C21.287626,49.631535 19.084133,54.447102 15.801930,58.357178 
	C14.303911,60.141773 10.698812,60.496826 7.999759,60.655365 
	C7.442470,60.688099 6.182766,56.995960 6.081930,54.978878 
	C5.810094,49.541210 5.988966,44.081009 5.988966,38.383598 
	C12.956430,37.296066 19.725887,36.239445 26.813271,35.133198 
	C25.827850,38.377571 24.914215,41.385605 23.966106,44.789696 
z"/>
<path fill="#085384" opacity="1.000000" stroke="none" 
	d="
M35.032852,18.088333 
	C34.189590,14.205162 33.349087,10.750620 32.436703,7.000655 
	C37.069035,7.000655 41.681709,6.870163 46.277996,7.087074 
	C47.517090,7.145550 49.612827,8.116280 49.738300,8.915771 
	C50.041008,10.844550 50.153961,13.916599 49.025387,14.756438 
	C44.962814,17.779634 40.354691,20.069721 35.331600,22.998976 
	C35.182758,20.745159 35.109184,19.631062 35.032852,18.088333 
z"/>
</svg>